<svg xmlns="http://www.w3.org/2000/svg" viewBox="0 0 256 256" role="img" aria-labelledby="title desc">
  <title id="title">Multiplay Tier Maker</title>
  <desc id="desc">A compact tier board with multiplayer cursor marks.</desc>
  <defs>
    <linearGradient id="bg" x1="34" y1="18" x2="222" y2="238" gradientUnits="userSpaceOnUse">
      <stop stop-color="#211f1b"/>
      <stop offset="1" stop-color="#11100f"/>
    </linearGradient>
    <linearGradient id="panel" x1="45" y1="36" x2="209" y2="204" gradientUnits="userSpaceOnUse">
      <stop stop-color="#2b2822"/>
      <stop offset="1" stop-color="#1b1916"/>
    </linearGradient>
    <filter id="shadow" x="-20%" y="-20%" width="140%" height="140%">
      <feDropShadow dx="0" dy="14" stdDeviation="10" flood-color="#000000" flood-opacity=".32"/>
    </filter>
  </defs>

  <rect width="256" height="256" rx="52" fill="url(#bg)"/>
  <path d="M30 32h196v192H30z" fill="none" stroke="#f6efe3" stroke-opacity=".05"/>
  <path d="M74 18v220M128 18v220M182 18v220M18 74h220M18 128h220M18 182h220" stroke="#f6efe3" stroke-opacity=".045" stroke-width="2"/>

  <rect x="34" y="38" width="188" height="162" rx="24" fill="url(#panel)" stroke="#f6efe3" stroke-opacity=".18" filter="url(#shadow)"/>
  <path d="M54 68h148M54 101h148M54 134h148M54 167h148" stroke="#f6efe3" stroke-opacity=".08" stroke-width="2"/>

  <rect x="52" y="56" width="34" height="24" rx="7" fill="#2dd4bf"/>
  <rect x="52" y="89" width="34" height="24" rx="7" fill="#f9734d"/>
  <rect x="52" y="122" width="34" height="24" rx="7" fill="#f4c95d"/>
  <rect x="52" y="155" width="34" height="24" rx="7" fill="#a78bfa"/>

  <rect x="96" y="58" width="28" height="20" rx="6" fill="#f6efe3" fill-opacity=".86"/>
  <rect x="130" y="58" width="28" height="20" rx="6" fill="#f6efe3" fill-opacity=".28"/>
  <rect x="164" y="58" width="28" height="20" rx="6" fill="#f6efe3" fill-opacity=".28"/>

  <rect x="96" y="91" width="28" height="20" rx="6" fill="#f6efe3" fill-opacity=".28"/>
  <rect x="130" y="91" width="28" height="20" rx="6" fill="#f6efe3" fill-opacity=".86"/>
  <rect x="164" y="124" width="28" height="20" rx="6" fill="#f6efe3" fill-opacity=".44"/>
  <rect x="96" y="157" width="28" height="20" rx="6" fill="#f6efe3" fill-opacity=".34"/>

  <path d="M154 168l54 21-24 8 16 28-15 8-16-28-18 17z" fill="#2dd4bf" stroke="#061311" stroke-width="8" stroke-linejoin="round"/>
  <path d="M154 168l54 21-24 8 16 28-15 8-16-28-18 17z" fill="#2dd4bf" stroke="#f6efe3" stroke-opacity=".28" stroke-width="2" stroke-linejoin="round"/>
  <circle cx="198" cy="74" r="12" fill="#a78bfa" stroke="#151312" stroke-width="6"/>
  <circle cx="214" cy="92" r="8" fill="#f4c95d" stroke="#151312" stroke-width="5"/>
  <path d="M46 211h82" stroke="#2dd4bf" stroke-width="8" stroke-linecap="round"/>
</svg>
